<svg width="110" height="110" viewBox="0 0 110 110" fill="none" xmlns="http://www.w3.org/2000/svg">
<path d="M40.2716 27H31.4856C28.9959 27 27 28.8522 27 31.1203V88.8797C27 91.1667 29.0164 93 31.4856 93H77.5144C80.0041 93 82 91.1478 82 88.8797V31.1203C82 28.8333 79.9835 27 77.5144 27H68.5844" stroke="white" stroke-width="2" stroke-miterlimit="10" stroke-linecap="round"/>
<path d="M67.8163 34H69.551C72.0204 34 74 35.8504 74 38.1162V81.8838C74 84.1685 72 86 69.551 86H38.449C35.9796 86 34 84.1496 34 81.8838V38.1351C34 35.8504 36 34.0189 38.449 34.0189" stroke="white" stroke-width="2" stroke-miterlimit="10" stroke-linecap="round"/>
<path d="M41 34H69" stroke="white" stroke-width="2" stroke-miterlimit="10" stroke-linecap="round"/>
<path d="M39 34H41" stroke="white" stroke-width="2" stroke-miterlimit="10" stroke-linecap="round"/>
<path d="M55.5298 30H52.4702C50.54 30 49 28.5598 49 26.7974V20.2026C49 18.4213 50.5606 17 52.4702 17H55.5298C57.46 17 59 18.4402 59 20.2026V26.7974C59 28.5598 57.4394 30 55.5298 30Z" stroke="white" stroke-width="2" stroke-miterlimit="10" stroke-linecap="round"/>
<path d="M41 44.2899L43.3268 49L48 42" stroke="white" stroke-width="2" stroke-miterlimit="10" stroke-linecap="round" stroke-linejoin="round"/>
<path d="M41 54.2899L43.3268 59L48 52" stroke="white" stroke-width="2" stroke-miterlimit="10" stroke-linecap="round" stroke-linejoin="round"/>
<path d="M41 64.296L43.3268 69L48 62" stroke="white" stroke-width="2" stroke-miterlimit="10" stroke-linecap="round" stroke-linejoin="round"/>
<path d="M41 75.296L43.3268 80L48 73" stroke="white" stroke-width="2" stroke-miterlimit="10" stroke-linecap="round" stroke-linejoin="round"/>
<path d="M53 46H66" stroke="white" stroke-width="2" stroke-miterlimit="10" stroke-linecap="round" stroke-linejoin="round"/>
<path d="M53 56H66" stroke="white" stroke-width="2" stroke-miterlimit="10" stroke-linecap="round" stroke-linejoin="round"/>
<path d="M53 66H66" stroke="white" stroke-width="2" stroke-miterlimit="10" stroke-linecap="round" stroke-linejoin="round"/>
<path d="M53 76H66" stroke="white" stroke-width="2" stroke-miterlimit="10" stroke-linecap="round" stroke-linejoin="round"/>
</svg>
