<svg width="110" height="110" viewBox="0 0 110 110" fill="none" xmlns="http://www.w3.org/2000/svg">
<path d="M63 34.3344V25.3384C63 23.6241 62.1985 22.5 60.5 22.5C59.5 22.5 58.5 23.5 58 24.5V19.9016C58 18.1873 57.1985 16.5 55.5 16.5C54.2403 16.483 53 17.5 52.8 18.5V17.4966C52.8 15.7822 51.1985 14 49.5 14C47.8015 14 46.3007 15.3749 46.3007 17.0892V17.9549C45.7626 17.0383 44.7872 16.4103 43.6604 16.4103C41.9619 16.4103 40.5997 17.7851 40.5997 19.4995L40.5 29.5C39.8441 28.5325 38.8508 27.5959 37.6231 27.5959C35.6219 27.5959 34.0075 29.2254 34.0075 31.2452C34.0075 31.4319 34.0075 31.6186 34.0075 31.8053C34.0075 32.3146 34.0075 32.8068 34.0075 33.316C34.0075 34.0289 34.0075 34.7418 34.0075 35.4547C34.0075 36.2864 34.0075 37.1181 34.0075 37.9328C34.0075 38.7815 34.0075 39.6132 34.0075 40.4619C34.0075 41.2257 34.0075 41.9726 34.0075 42.7364C34.0075 43.3135 34.0075 43.8906 34.0075 44.4507C34.0075 44.875 33.9907 45.2824 34.0075 45.7068C34.0243 46.1311 34.1252 46.5385 34.2261 46.9458C34.3438 47.4041 34.4952 47.8794 34.697 48.3037C35.1679 49.3391 40.6838 54.0238 40.6838 54.0238V61H50.6563" stroke="#0A4B78" stroke-miterlimit="10" stroke-linecap="round"/>
<path d="M41 28V42.5C41 42.5 45.9396 42.681 47 48" stroke="#0A4B78" stroke-miterlimit="10" stroke-linecap="round"/>
<path d="M46 18V25.873L46 34" stroke="#0A4B78" stroke-miterlimit="10" stroke-linecap="round"/>
<path d="M53 18V33" stroke="#0A4B78" stroke-miterlimit="10" stroke-linecap="round"/>
<path d="M58 23V32" stroke="#0A4B78" stroke-miterlimit="10" stroke-linecap="round"/>
<path d="M41 65V88H53" stroke="#0A4B78" stroke-miterlimit="10" stroke-linecap="round" stroke-linejoin="round"/>
<path d="M57 51.3225V43.6721C57 42.2252 58.173 41.036 59.6442 41.036C60.36 41.036 60.9962 41.3135 61.4734 41.7694V38.6973C61.4734 37.2505 62.6464 36.0613 64.1176 36.0613C64.9327 36.0613 65.6485 36.4378 66.1257 37.0126V36.636C66.1257 35.1892 67.2987 34 68.7699 34C70.2411 34 71.4142 35.1694 71.4142 36.636V37.3694C71.8715 36.5964 72.7065 36.0613 73.6807 36.0613C75.132 36.0613 76.3249 37.2306 76.3249 38.6973V46.9622C76.8816 46.1495 77.8359 45.5946 78.8896 45.5946C80.5995 45.5946 81.9912 46.982 81.9912 48.6865C81.9912 48.845 81.9912 49.0036 81.9912 49.1622C81.9912 49.5982 81.9912 50.0144 81.9912 50.4504C81.9912 51.0649 81.9912 51.6595 81.9912 52.2739C81.9912 52.9874 81.9912 53.6811 81.9912 54.3946C81.9912 55.1081 81.9912 55.8216 81.9912 56.555C81.9912 57.209 81.9912 57.8432 81.9912 58.4973C81.9912 58.9928 81.9912 59.4685 81.9912 59.964C81.9912 60.3207 82.011 60.6775 81.9912 61.0342C81.9713 61.391 81.8918 61.7477 81.7924 62.0847C81.693 62.4811 81.5538 62.8775 81.3947 63.2541C80.9772 64.1261 76.2255 68.1297 76.2255 68.1297V78H67.6366" stroke="#0A4B78" stroke-miterlimit="10" stroke-linecap="round"/>
<path d="M76 46V58.8864C76 58.8864 71.8046 59.2136 71 64" stroke="#0A4B78" stroke-miterlimit="10" stroke-linecap="round"/>
<path d="M71 37V50" stroke="#0A4B78" stroke-miterlimit="10" stroke-linecap="round"/>
<path d="M66 37V50" stroke="#0A4B78" stroke-miterlimit="10" stroke-linecap="round"/>
<path d="M61 42V51" stroke="#0A4B78" stroke-miterlimit="10" stroke-linecap="round"/>
<path d="M57 51V63.7144C57 63.7144 59.7462 70.4338 59.8656 78.0785H57.91V89H67.6265H76V80.7198" stroke="#0A4B78" stroke-miterlimit="10" stroke-linecap="round" stroke-linejoin="round"/>
<path d="M29 57V59" stroke="#0A4B78" stroke-miterlimit="10" stroke-linecap="round"/>
<path d="M24 62H26" stroke="#0A4B78" stroke-miterlimit="10" stroke-linecap="round"/>
<path d="M29 67V65" stroke="#0A4B78" stroke-miterlimit="10" stroke-linecap="round"/>
<path d="M34 62H32" stroke="#0A4B78" stroke-miterlimit="10" stroke-linecap="round"/>
<path d="M81 24V26" stroke="#0A4B78" stroke-miterlimit="10" stroke-linecap="round"/>
<path d="M76 29H78" stroke="#0A4B78" stroke-miterlimit="10" stroke-linecap="round"/>
<path d="M81 34V32" stroke="#0A4B78" stroke-miterlimit="10" stroke-linecap="round"/>
<path d="M86 29H84" stroke="#0A4B78" stroke-miterlimit="10" stroke-linecap="round"/>
</svg>
