<svg width="110" height="110" viewBox="0 0 110 110" fill="none" xmlns="http://www.w3.org/2000/svg">
<path d="M81.8106 36H16L20.427 66.6593C20.8895 70.2763 23.9951 73 27.6953 73H79.4528L83 36H81.8106Z" stroke="white" stroke-width="2" stroke-miterlimit="10"/>
<path d="M27 35V25.2146C27 24.5459 27.8654 24 28.9255 24H34.0745C35.1346 24 36 24.5459 36 25.2146V35" stroke="white" stroke-width="2" stroke-miterlimit="10"/>
<path d="M27 29H36" stroke="white" stroke-width="2" stroke-miterlimit="10"/>
<path d="M62 35V25.2146C62 24.5459 62.8654 24 63.9255 24H69.0745C70.1346 24 71 24.5459 71 25.2146V35" stroke="white" stroke-width="2" stroke-miterlimit="10"/>
<path d="M63 29H72" stroke="white" stroke-width="2" stroke-miterlimit="10"/>
<path d="M45 36V23.3143C45 22.5907 45.8654 22 46.9255 22H52.0745C53.1346 22 54 22.5907 54 23.3143V36" stroke="white" stroke-width="2" stroke-miterlimit="10"/>
<path d="M45 27H54" stroke="white" stroke-width="2" stroke-miterlimit="10"/>
<path d="M28 45H81" stroke="white" stroke-width="2" stroke-miterlimit="10" stroke-linecap="round"/>
<path d="M33 60H80" stroke="white" stroke-width="2" stroke-miterlimit="10" stroke-linecap="round"/>
<path d="M83 37L83.5 34.3956C83.5 34.3956 85.5 24.499 94 25.0199" stroke="white" stroke-width="2" stroke-miterlimit="10" stroke-linecap="round"/>
<path d="M83 36L79.5 73.4458C79.5 73.4458 77.6915 78 74.5 78H64" stroke="white" stroke-width="2" stroke-miterlimit="10" stroke-linecap="round"/>
<path d="M56 78H41" stroke="white" stroke-width="2" stroke-linecap="round"/>
<path d="M36.5 87C39.5376 87 42 84.5376 42 81.5C42 78.4624 39.5376 76 36.5 76C33.4624 76 31 78.4624 31 81.5C31 84.5376 33.4624 87 36.5 87Z" stroke="white" stroke-width="2" stroke-miterlimit="10" stroke-linecap="round"/>
<path d="M59.5 87C62.5376 87 65 84.5376 65 81.5C65 78.4624 62.5376 76 59.5 76C56.4624 76 54 78.4624 54 81.5C54 84.5376 56.4624 87 59.5 87Z" stroke="white" stroke-width="2" stroke-miterlimit="10" stroke-linecap="round"/>
<path d="M19 87H88" stroke="white" stroke-width="2" stroke-miterlimit="10" stroke-linecap="round"/>
</svg>
