<svg width="110" height="110" viewBox="0 0 110 110" fill="none" xmlns="http://www.w3.org/2000/svg">
<path d="M52 65V51.7311C52 48.5749 49.4183 46 46.2535 46H23.7465C20.5818 46 18 48.5749 18 51.7311V65" stroke="#0A4B78" stroke-miterlimit="10" stroke-linecap="round"/>
<path d="M60.1128 74H8.86685C6.72991 74 5 71.9632 5 69.5C5 67.0132 6.75026 65 8.86685 65H60.1331C62.2701 65 64 67.0368 64 69.5C63.9796 71.9868 62.2497 74 60.1128 74Z" stroke="#0A4B78" stroke-miterlimit="10" stroke-linecap="round"/>
<path d="M69.7151 67H101.026C103.222 67 105 68.8105 105 71C105 73.2105 103.201 75 101.026 75H68" stroke="#0A4B78" stroke-miterlimit="10" stroke-linecap="round"/>
<path d="M35 42C39.9706 42 44 37.9706 44 33C44 28.0294 39.9706 24 35 24C30.0294 24 26 28.0294 26 33C26 37.9706 30.0294 42 35 42Z" stroke="#0A4B78" stroke-miterlimit="10" stroke-linecap="round"/>
<path d="M91 65V54.5283C91 52.0418 88.9419 50 86.4355 50H68.5645C66.0581 50 64 52.0418 64 54.5283V65" stroke="#0A4B78" stroke-miterlimit="10" stroke-linecap="round"/>
<path d="M77.5 47C81.6421 47 85 43.6421 85 39.5C85 35.3579 81.6421 32 77.5 32C73.3578 32 70 35.3579 70 39.5C70 43.6421 73.3578 47 77.5 47Z" stroke="#0A4B78" stroke-miterlimit="10" stroke-linecap="round"/>
<path d="M26 60V65" stroke="#0A4B78" stroke-miterlimit="10" stroke-linecap="round"/>
<path d="M44 60V65" stroke="#0A4B78" stroke-miterlimit="10" stroke-linecap="round"/>
<path d="M12 74V81H59V74.4167" stroke="#0A4B78" stroke-miterlimit="10" stroke-linecap="round"/>
<path d="M17 81V92H24V81.6947" stroke="#0A4B78" stroke-miterlimit="10" stroke-linecap="round"/>
<path d="M45 81V92H52V81.6947" stroke="#0A4B78" stroke-miterlimit="10" stroke-linecap="round"/>
<path d="M63 81V91H69V81.6642" stroke="#0A4B78" stroke-miterlimit="10" stroke-linecap="round"/>
<path d="M87 81V91H94V81.6642" stroke="#0A4B78" stroke-miterlimit="10" stroke-linecap="round"/>
<path d="M63 81H99V76" stroke="#0A4B78" stroke-miterlimit="10" stroke-linecap="round"/>
<path d="M69 63V67" stroke="#0A4B78" stroke-miterlimit="10" stroke-linecap="round"/>
<path d="M86 63V67" stroke="#0A4B78" stroke-miterlimit="10" stroke-linecap="round"/>
<path d="M53 28V30" stroke="#0A4B78" stroke-miterlimit="10" stroke-linecap="round"/>
<path d="M48 33H50" stroke="#0A4B78" stroke-miterlimit="10" stroke-linecap="round"/>
<path d="M53 38V36" stroke="#0A4B78" stroke-miterlimit="10" stroke-linecap="round"/>
<path d="M58 33H56" stroke="#0A4B78" stroke-miterlimit="10" stroke-linecap="round"/>
<path d="M65 21V23" stroke="#0A4B78" stroke-miterlimit="10" stroke-linecap="round"/>
<path d="M60 26H62" stroke="#0A4B78" stroke-miterlimit="10" stroke-linecap="round"/>
<path d="M65 31V29" stroke="#0A4B78" stroke-miterlimit="10" stroke-linecap="round"/>
<path d="M70 26H68" stroke="#0A4B78" stroke-miterlimit="10" stroke-linecap="round"/>
</svg>
