<svg width="110" height="110" viewBox="0 0 110 110" fill="none" xmlns="http://www.w3.org/2000/svg">
<path d="M85.4011 72H24.5989C21.5146 72 19 69.4679 19 66.3621V28.6379C19 25.5321 21.5146 23 24.5989 23H85.4011C88.4854 23 91 25.5321 91 28.6379V66.3621C91 69.4877 88.5051 72 85.4011 72Z" stroke="#0A4B78" stroke-miterlimit="10"/>
<path d="M19 63H90" stroke="#0A4B78" stroke-miterlimit="10"/>
<path d="M30 88H79" stroke="#0A4B78" stroke-miterlimit="10" stroke-linecap="round"/>
<path d="M22 92H89" stroke="#0A4B78" stroke-miterlimit="10" stroke-linecap="round"/>
<path d="M40 88L44 72" stroke="#0A4B78" stroke-miterlimit="10" stroke-linecap="round"/>
<path d="M40 88L44 72" stroke="#0A4B78" stroke-miterlimit="10" stroke-linecap="round"/>
<path d="M70 88L66 72" stroke="#0A4B78" stroke-miterlimit="10" stroke-linecap="round"/>
<path d="M41 31H30V63H41V31Z" stroke="#0A4B78" stroke-miterlimit="10" stroke-linecap="round" stroke-linejoin="round"/>
<path d="M34 38H37" stroke="#0A4B78" stroke-miterlimit="10" stroke-linecap="round" stroke-linejoin="round"/>
<path d="M34 44H37" stroke="#0A4B78" stroke-miterlimit="10" stroke-linecap="round" stroke-linejoin="round"/>
<path d="M52 31H41V63H52V31Z" stroke="#0A4B78" stroke-miterlimit="10" stroke-linecap="round" stroke-linejoin="round"/>
<path d="M45 38H48" stroke="#0A4B78" stroke-miterlimit="10" stroke-linecap="round" stroke-linejoin="round"/>
<path d="M45 44H48" stroke="#0A4B78" stroke-miterlimit="10" stroke-linecap="round" stroke-linejoin="round"/>
<path d="M63 31H52V63H63V31Z" stroke="#0A4B78" stroke-miterlimit="10" stroke-linecap="round" stroke-linejoin="round"/>
<path d="M56 38H59" stroke="#0A4B78" stroke-miterlimit="10" stroke-linecap="round" stroke-linejoin="round"/>
<path d="M56 44H59" stroke="#0A4B78" stroke-miterlimit="10" stroke-linecap="round" stroke-linejoin="round"/>
<path d="M74.8454 30L64 31.8377L69.2613 62.8881L80.1067 61.0504L74.8454 30Z" stroke="#0A4B78" stroke-miterlimit="10" stroke-linecap="round" stroke-linejoin="round"/>
<path d="M69.1132 38.0711L72.071 37.5699" stroke="#0A4B78" stroke-miterlimit="10" stroke-linecap="round" stroke-linejoin="round"/>
<path d="M70.1156 43.9868L73.0734 43.4856" stroke="#0A4B78" stroke-miterlimit="10" stroke-linecap="round" stroke-linejoin="round"/>
</svg>
