<svg width="110" height="110" viewBox="0 0 110 110" fill="none" xmlns="http://www.w3.org/2000/svg">
<path d="M56 25.1806C56 25.1806 44.482 18.9108 28 21.7277V57.7838C28 57.7838 48.1662 55.8392 56 62C63.8338 55.8392 84 57.7838 84 57.7838V21.7277C67.518 18.9108 56 25.1806 56 25.1806Z" stroke="white" stroke-width="2" stroke-miterlimit="10"/>
<path d="M83.9909 29.0181H87.2922C89.8903 29.0181 92 30.9756 92 33.3861V70.632C92 73.0426 89.8903 75 87.2922 75H23.7078C21.1097 75 19 73.0426 19 70.632V33.368C19 30.9574 21.1097 29 23.7078 29H27.1263" stroke="white" stroke-width="2" stroke-miterlimit="10"/>
<path d="M19 68H92" stroke="white" stroke-width="2" stroke-miterlimit="10"/>
<path d="M56 25V61" stroke="white" stroke-width="2" stroke-miterlimit="10"/>
<path d="M89.2082 88H21.7918C20.2583 88 19 86.7707 19 85.2293V80H92V85.2293C92 86.7512 90.7614 88 89.2082 88Z" stroke="white" stroke-width="2" stroke-miterlimit="10"/>
<path d="M28 75V80" stroke="white" stroke-width="2" stroke-miterlimit="10"/>
<path d="M43 75V80" stroke="white" stroke-width="2" stroke-miterlimit="10"/>
<path d="M68 75V80" stroke="white" stroke-width="2" stroke-miterlimit="10"/>
<path d="M84 75V80" stroke="white" stroke-width="2" stroke-miterlimit="10"/>
</svg>
